<svg width="13" height="13" viewBox="0 0 13 13" fill="none" xmlns="http://www.w3.org/2000/svg">
<path d="M6.5 6.54221C5.60129 6.54221 4.83668 6.22389 4.20619 5.58726C3.5757 4.95062 3.26045 4.17857 3.26045 3.2711C3.26045 2.36364 3.5757 1.59159 4.20619 0.954951C4.83668 0.318317 5.60129 0 6.5 0C7.39871 0 8.16332 0.318317 8.79381 0.954951C9.4243 1.59159 9.73955 2.36364 9.73955 3.2711C9.73955 4.17857 9.4243 4.95062 8.79381 5.58726C8.16332 6.22389 7.39871 6.54221 6.5 6.54221ZM0 13V10.763C0 10.2987 0.116693 9.87486 0.35008 9.49148C0.583467 9.10809 0.898853 8.81432 1.29624 8.61018C2.14591 8.18824 3.00442 7.86999 3.87178 7.65544C4.73915 7.44088 5.61522 7.3336 6.5 7.3336C7.38478 7.3336 8.26085 7.44088 9.12821 7.65544C9.99558 7.86999 10.8541 8.18824 11.7038 8.61018C12.1011 8.81432 12.4165 9.10809 12.6499 9.49148C12.8833 9.87486 13 10.2987 13 10.763V13H0ZM1.56752 11.4172H11.4325V10.763C11.4325 10.6056 11.3942 10.4625 11.3175 10.3337C11.2409 10.2049 11.1364 10.1052 11.004 10.0349C10.2586 9.66207 9.51195 9.38244 8.76413 9.19602C8.01618 9.0096 7.26147 8.9164 6.5 8.9164C5.73365 8.9164 4.97776 9.0096 4.23232 9.19602C3.48687 9.38244 2.74143 9.66207 1.99598 10.0349C1.86361 10.1052 1.75911 10.2049 1.68248 10.3337C1.60584 10.4625 1.56752 10.6056 1.56752 10.763V11.4172ZM6.5 4.95942C6.95981 4.95942 7.35343 4.7941 7.68087 4.46347C8.00831 4.13285 8.17203 3.73539 8.17203 3.2711C8.17203 2.80682 8.00831 2.40936 7.68087 2.07873C7.35343 1.74811 6.95981 1.58279 6.5 1.58279C6.04019 1.58279 5.64657 1.74811 5.31913 2.07873C4.99169 2.40936 4.82797 2.80682 4.82797 3.2711C4.82797 3.73539 4.99169 4.13285 5.31913 4.46347C5.64657 4.7941 6.04019 4.95942 6.5 4.95942Z" fill="#71717B"/>
</svg>
