<svg width="18" height="18" viewBox="0 0 18 18" fill="none" xmlns="http://www.w3.org/2000/svg">
<path d="M3.59128 5.24228C3.59128 4.33084 4.3305 3.59162 5.24121 3.59162H5.99211C6.42703 3.59162 6.84517 3.4194 7.15457 3.11219L7.67925 2.58678C8.32215 1.94096 9.36713 1.93804 10.0129 2.58094L10.0195 2.58678L10.5449 3.11219C10.8536 3.4194 11.2717 3.59162 11.7074 3.59162H12.4576C13.369 3.59162 14.1082 4.33084 14.1082 5.24228V5.99172C14.1082 6.4281 14.2804 6.8455 14.5876 7.15491L15.1131 7.68032C15.7589 8.32322 15.7625 9.36746 15.1196 10.014L15.1131 10.0206L14.5876 10.546C14.2804 10.8539 14.1082 11.2728 14.1082 11.7077V12.4586C14.1082 13.3701 13.369 14.1085 12.4576 14.1085H11.7074C11.2717 14.1085 10.8536 14.2815 10.5449 14.5887L10.0195 15.1134C9.37734 15.7599 8.33236 15.7629 7.68582 15.12C7.68363 15.1178 7.68144 15.1156 7.67925 15.1134L7.15457 14.5887C6.84517 14.2815 6.42703 14.1085 5.99211 14.1085H5.24121C4.3305 14.1085 3.59128 13.3701 3.59128 12.4586V11.7077C3.59128 11.2728 3.41834 10.8539 3.11112 10.546L2.58644 10.0206C1.9399 9.37768 1.93698 8.3327 2.57987 7.68689L2.58644 7.68032L3.11112 7.15491C3.41834 6.8455 3.59128 6.4281 3.59128 5.99172V5.24228" stroke="#353535" stroke-linecap="round" stroke-linejoin="round"/>
<path d="M6.97461 10.7254L10.7254 6.97461" stroke="#353535" stroke-linecap="round" stroke-linejoin="round"/>
<path d="M10.7231 11.2748C10.5771 11.2748 10.4385 11.2164 10.3363 11.1143C10.2852 11.0632 10.2488 10.9975 10.2196 10.9318C10.1904 10.8662 10.1758 10.8012 10.1758 10.7275C10.1758 10.6545 10.1904 10.5816 10.2196 10.5159C10.2488 10.4502 10.2852 10.3918 10.3363 10.3407C10.5406 10.1364 10.9055 10.1364 11.1098 10.3407C11.1609 10.3918 11.2047 10.4502 11.2339 10.5159C11.2558 10.5816 11.2704 10.6545 11.2704 10.7275C11.2704 10.8012 11.2558 10.8662 11.2339 10.9318C11.2047 10.9975 11.1609 11.0632 11.1098 11.1143C11.0077 11.2164 10.869 11.2748 10.7231 11.2748Z" fill="#353535"/>
<path d="M6.97113 7.52437C6.89816 7.52437 6.83248 7.50905 6.7668 7.47986C6.70113 7.45067 6.63545 7.41491 6.58437 7.36383C6.53329 7.30545 6.4968 7.24708 6.46761 7.1814C6.43842 7.11499 6.42383 7.05005 6.42383 6.97707C6.42383 6.90337 6.43842 6.83113 6.46761 6.76545C6.4968 6.69978 6.53329 6.6341 6.58437 6.59031C6.79599 6.38526 7.15356 6.38526 7.35789 6.59031C7.46005 6.69175 7.51843 6.83113 7.51843 6.97707C7.51843 7.05005 7.51113 7.11499 7.48194 7.1814C7.45275 7.24708 7.40897 7.30545 7.35789 7.36383C7.30681 7.41491 7.24843 7.45067 7.18275 7.47986C7.11708 7.50905 7.0441 7.52437 6.97113 7.52437Z" fill="#353535"/>
</svg>
