<svg width="36" height="36" viewBox="0 0 36 36" fill="none" xmlns="http://www.w3.org/2000/svg">
<rect width="36" height="36" rx="4" fill="#0BDA68"/>
<path fill-rule="evenodd" clip-rule="evenodd" d="M13.3965 26.918C13.274 25.9593 12.9216 25.044 12.369 24.2495C11.8163 23.455 11.0797 22.8046 10.2214 22.3533V22.3502C8.64564 21.5242 7.32644 20.2852 6.40623 18.7672C5.48603 17.2491 4.99979 15.5096 5 13.7365C5 8.35915 9.38431 4 14.7882 4C15.1225 4.00022 15.4565 4.01716 15.789 4.05076C17.1264 4.18631 18.4215 4.5949 19.5933 5.25103C20.765 5.90717 21.7884 6.79675 22.5994 7.86425L22.6056 7.87237C21.9836 8.25671 21.4888 8.81453 21.1827 9.47651C20.8765 10.1385 20.7725 10.8755 20.8835 11.5958C20.9945 12.3162 21.3157 12.9882 21.8071 13.5283C22.2985 14.0685 22.9385 14.4529 23.6476 14.6339V14.639C27.8749 15.7151 31 19.5321 31 24.0725C31.0027 25.9031 30.4843 27.6971 29.5047 29.2463C29.1359 29.8291 28.7065 30.3717 28.2236 30.865C27.8479 31.252 27.3923 31.5532 26.8884 31.7479C26.3844 31.9426 25.844 32.0262 25.3045 31.9929C24.765 31.9595 24.2391 31.81 23.7632 31.5548C23.2873 31.2995 22.8727 30.9445 22.548 30.5142C22.2232 30.0839 21.996 29.5886 21.8821 29.0625C21.7682 28.5364 21.7703 27.9919 21.8882 27.4666C22.0061 26.9414 22.2371 26.4478 22.5651 26.02C22.8931 25.5922 23.3105 25.2404 23.7883 24.9887V24.9861C24.3887 24.6699 24.8912 24.1966 25.2415 23.6172C25.5918 23.0379 25.7768 22.3743 25.7765 21.698C25.7765 21.5792 25.7711 21.4616 25.7602 21.3452C24.865 20.1033 23.5296 19.2462 22.024 18.9469C20.5184 18.6477 18.9548 18.9287 17.6492 19.7331C17.0006 19.1754 16.1787 18.8572 15.322 18.8322C15.1507 19.5013 15.1696 20.2046 15.3766 20.8637C15.5837 21.5227 15.9708 22.1114 16.4945 22.5639C16.4945 22.601 16.4945 22.6381 16.4945 22.6751C16.4932 23.578 16.8233 24.4503 17.4229 25.1278C17.6623 25.3984 17.8344 25.7213 17.9254 26.0704C18.0163 26.4194 18.0235 26.7849 17.9464 27.1373C17.8693 27.4897 17.7101 27.8191 17.4816 28.0989C17.2531 28.3786 16.9617 28.601 16.6309 28.748C16.3001 28.895 15.9393 28.9625 15.5775 28.945C15.2157 28.9275 14.8631 28.8256 14.5482 28.6474C14.2333 28.4693 13.9649 28.2198 13.7646 27.9193C13.5644 27.6188 13.4379 27.2757 13.3954 26.9175L13.3965 26.918ZM20.679 22.2964C20.2888 22.297 19.9048 22.1988 19.5631 22.0112C19.7056 21.7384 19.9014 21.4968 20.139 21.3005C20.3766 21.1042 20.6513 20.9572 20.9468 20.8681C21.2424 20.779 21.5528 20.7496 21.8599 20.7817C22.167 20.8138 22.4645 20.9067 22.7351 21.0549C22.539 21.4291 22.2437 21.7427 21.8812 21.9616C21.5187 22.1804 21.1029 22.2963 20.679 22.2964Z" fill="white"/>
</svg>
