<svg width="16" height="16" viewBox="0 0 16 16" fill="none" xmlns="http://www.w3.org/2000/svg">
<path d="M8 7V12.25" stroke="#353535" stroke-linecap="round" stroke-linejoin="round"/>
<path d="M12.894 10.7275C13.463 10.4174 13.9124 9.92655 14.1714 9.33256C14.4305 8.73858 14.4843 8.07525 14.3245 7.44727C14.1646 6.81929 13.8002 6.26241 13.2887 5.86454C12.7773 5.46667 12.1479 5.25046 11.4999 5.25003H10.7649C10.5883 4.56709 10.2592 3.93306 9.80232 3.39561C9.34545 2.85816 8.77268 2.43128 8.12708 2.14705C7.48148 1.86283 6.77984 1.72866 6.07492 1.75463C5.37 1.7806 4.68014 1.96604 4.05721 2.297C3.43427 2.62797 2.89447 3.09584 2.47838 3.66545C2.0623 4.23507 1.78076 4.89159 1.65493 5.58568C1.5291 6.27976 1.56225 6.99334 1.7519 7.67277C1.94154 8.35219 2.28275 8.97979 2.74986 9.50836" stroke="#353535" stroke-linecap="round" stroke-linejoin="round"/>
<path d="M10.3346 9.33333L9.16797 8.16667L8.0013 7L5.66797 9.33333" stroke="#353535" stroke-linecap="round" stroke-linejoin="round"/>
</svg>
