<svg width="18" height="18" viewBox="0 0 18 18" fill="none" xmlns="http://www.w3.org/2000/svg">
<path fill-rule="evenodd" clip-rule="evenodd" d="M2.73102 7.56457C4.38677 6.10508 6.51813 5.2998 8.7253 5.2998C10.9325 5.2998 13.0638 6.10508 14.7196 7.56457C14.9267 7.74717 15.2427 7.72727 15.4253 7.52011C15.6079 7.31296 15.588 6.99701 15.3808 6.81441C13.5424 5.19391 11.176 4.2998 8.7253 4.2998C6.27464 4.2998 3.90817 5.19391 2.06977 6.81441C1.86262 6.99701 1.84271 7.31296 2.02531 7.52011C2.20791 7.72727 2.52387 7.74717 2.73102 7.56457ZM4.86102 9.69593C5.9528 8.78655 7.32876 8.28857 8.74965 8.28857C10.1705 8.28857 11.5465 8.78655 12.6383 9.69593C12.8505 9.87266 13.1657 9.84392 13.3425 9.63174C13.5192 9.41956 13.4905 9.10428 13.2783 8.92755C12.0068 7.86851 10.4044 7.28857 8.74965 7.28857C7.0949 7.28857 5.49248 7.86851 4.22102 8.92755C4.00883 9.10428 3.9801 9.41956 4.15683 9.63174C4.33356 9.84392 4.64883 9.87266 4.86102 9.69593ZM8.72781 11.2769C8.0871 11.2769 7.46228 11.4762 6.93997 11.8473C6.71486 12.0072 6.40272 11.9544 6.24279 11.7293C6.08285 11.5042 6.13569 11.192 6.36081 11.0321C7.05231 10.5408 7.87955 10.2769 8.72781 10.2769C9.57606 10.2769 10.4033 10.5408 11.0948 11.0321C11.3199 11.192 11.3728 11.5042 11.2128 11.7293C11.0529 11.9544 10.7407 12.0072 10.5156 11.8473C9.99333 11.4762 9.36851 11.2769 8.72781 11.2769ZM8.72461 13.0156C8.3104 13.0156 7.97461 13.3514 7.97461 13.7656C7.97461 14.1798 8.3104 14.5156 8.72461 14.5156H8.73135C9.14556 14.5156 9.48135 14.1798 9.48135 13.7656C9.48135 13.3514 9.14556 13.0156 8.73135 13.0156H8.72461Z" fill="#353535"/>
</svg>
